# xmcd
#
# Track frame offsets:
#	150
#	9895
#	21458
#	35328
#	45128
#	56418
#	67930
#	78813
#	89035
#	98383
#	112253
#	125855
#	137100
#	146763
#
# Disc length: 2112 seconds
#
# Revision: 0
# Processed by: cddbd v1.5.1PL0 Copyright (c) Steve Scherf et al.
# Submitted via: dBpowerAMP V4.0
#
DISCID=b5083e0e
DTITLE=Pat Boone - Moody River
DYEAR=1900
DGENRE=
TTITLE0=Love letters in the sand
TTITLE1=I almost lost my head
TTITLE2=Friendly persuasion
TTITLE3=Mr. blue
TTITLE4=April Love
TTITLE5=Speedy Gonzalez
TTITLE6=Tutti frutti
TTITLE7=Don't forbid me
TTITLE8=A wonderful time up here
TTITLE9=I believe in music
TTITLE10=I'll be home
TTITLE11=Moody River
TTITLE12=bernadine
TTITLE13=Poetry in motion
EXTD=
EXTT0=
EXTT1=
EXTT2=
EXTT3=
EXTT4=
EXTT5=
EXTT6=
EXTT7=
EXTT8=
EXTT9=
EXTT10=
EXTT11=
EXTT12=
EXTT13=
PLAYORDER=
